<svg xmlns="http://www.w3.org/2000/svg" viewBox="0 0 128 128">
  <defs>
    <linearGradient id="bg" x1="0" y1="0" x2="1" y2="1">
      <stop offset="0" stop-color="#3b82f6"/>
      <stop offset="1" stop-color="#1d4ed8"/>
    </linearGradient>
  </defs>
  <rect width="128" height="128" rx="28" fill="url(#bg)"/>
  <!-- flag pole -->
  <rect x="30" y="22" width="6" height="84" rx="3" fill="#fde68a"/>
  <!-- waving tricolor flag -->
  <path d="M36 26 C56 18, 76 34, 100 26 L100 42 C76 50, 56 34, 36 42 Z" fill="#ef4444"/>
  <path d="M36 42 C56 34, 76 50, 100 42 L100 58 C76 66, 56 50, 36 58 Z" fill="#ffffff"/>
  <path d="M36 58 C56 50, 76 66, 100 58 L100 74 C76 82, 56 66, 36 74 Z" fill="#22c55e"/>
  <!-- soccer ball -->
  <circle cx="88" cy="96" r="22" fill="#ffffff"/>
  <path d="M88 84 l8 6 -3 9 h-10 l-3 -9 Z" fill="#0f172a"/>
  <path d="M88 74 l4 6 -4 4 -4 -4 Z M70 92 l7 1 1 6 -6 3 Z M106 92 l-7 1 -1 6 6 3 Z M78 113 l3 -6 7 1 1 7 Z M98 113 l-3 -6 -7 1 -1 7 Z" fill="#0f172a"/>
  <circle cx="88" cy="96" r="22" fill="none" stroke="#0f172a" stroke-width="3"/>
</svg>
